<?xml version="1.0" encoding="utf-8"?>
<!-- Generator: Adobe Illustrator 26.3.0, SVG Export Plug-In . SVG Version: 6.00 Build 0)  -->
<svg version="1.1" id="Capa_1" xmlns="http://www.w3.org/2000/svg" xmlns:xlink="http://www.w3.org/1999/xlink" x="0px" y="0px"
	 viewBox="0 0 475.66 1000.09" style="enable-background:new 0 0 475.66 1000.09;" xml:space="preserve">
<style type="text/css">
	.st0{fill:#37BB99;}
	.st1{fill:#37BB98;}
</style>
<g>
	<path class="st0" d="M146.43,989.46c-0.65-1.45-2.22-1.22-3.34-1.8c-5.6-2.87-8.22-8.47-6.66-14.5c1.41-5.46,6.28-9.03,12.17-8.92
		c5.78,0.11,10.61,4.05,11.71,9.54c1.21,6.04-1.8,11.59-7.47,14.14c-1.13,0.51-2.76-0.03-3.41,1.54
		C148.43,989.46,147.43,989.46,146.43,989.46z"/>
	<path class="st0" d="M84.66,989.46c-0.77-1.52-2.48-1.43-3.72-2.13c-5.13-2.87-7.64-8.75-6.04-14.4c1.59-5.62,6.7-9.05,12.86-8.66
		c5.54,0.35,10.08,4.39,10.95,9.73c1.03,6.34-1.93,11.68-7.6,14.04c-1.15,0.48-2.77-0.15-3.46,1.42
		C86.65,989.46,85.66,989.46,84.66,989.46z"/>
	<path class="st0" d="M392.53,989.46c-5.09-2.76-10.18-5.44-10.28-12.44c-0.09-6.31,3.82-11.57,9.63-12.58
		c6.63-1.16,12.61,2.35,14.38,8.44c1.74,6-1.18,12.12-6.87,14.86c-1.28,0.62-3.07,0.09-3.87,1.71
		C394.52,989.46,393.52,989.46,392.53,989.46z"/>
	<path class="st0" d="M330.75,989.46c-0.6-1.45-2.15-1.34-3.26-1.94c-5.51-2.95-8.14-8.84-6.43-14.63c1.64-5.58,6.8-9.02,12.91-8.62
		c5.72,0.38,10.26,4.62,10.97,10.27c0.8,6.33-2.35,11.54-8.19,13.68c-1.01,0.37-2.42-0.19-3,1.23
		C332.75,989.46,331.75,989.46,330.75,989.46z"/>
	<path class="st1" d="M345.69,179.06c-0.99,7.98-4.68,12.36-13.31,12.67c-6.35,0.23-12.75-6.81-12.58-13.06
		c0.17-5.99,6.9-12.69,12.84-12.79C339.17,165.79,345.83,172.52,345.69,179.06z"/>
	<path class="st1" d="M86.59,7.15c6.95,0,13.07,5.41,12.98,11.82c-0.11,7.77-5.78,13.17-12.82,13.17
		c-7.48,0.01-12.82-5.46-12.91-12.51C73.75,13.2,79.64,5.78,86.59,7.15z"/>
	<path class="st1" d="M394.52,7.15c7.04-1.35,12.84,5.99,12.81,12.42c-0.03,6.95-5.26,12.52-12.84,12.57
		c-7,0.04-12.74-5.31-12.89-13.11C381.49,12.62,387.6,7.15,394.52,7.15z"/>
	<path class="st1" d="M86.71,111.96c-8.25,0.13-12.49-6.18-12.88-13.11c-0.36-6.34,6.66-12.58,13.29-12.56
		c5.78,0.02,12.52,6.6,12.45,12.48C99.48,106.55,93.8,112.12,86.71,111.96z"/>
	<path class="st1" d="M394.44,111.96c-7.08,0.15-12.76-5.43-12.83-13.21c-0.06-5.88,6.7-12.47,12.47-12.47
		c6.63,0,13.65,6.26,13.27,12.59C406.93,105.84,402.66,112.11,394.44,111.96z"/>
	<path class="st1" d="M407.45,178.68c0.17,6.27-6.27,13.3-12.63,13.06c-8.46-0.33-12.62-4.65-13.17-12.8
		c-0.48-7.14,6.79-12.6,12.92-12.97C400.47,165.62,407.29,172.67,407.45,178.68z"/>
	<path class="st1" d="M468.24,258.58c1.36,7.36-6.11,13-12.38,12.97c-7.07-0.03-12.66-5.47-12.54-12.97
		c0.11-7.49,5.36-12.46,12.29-12.73C461.95,245.62,469.66,251.65,468.24,258.58z"/>
	<path class="st1" d="M148.24,7.15c7.22-1.16,12.76,4.94,12.85,12.37c0.08,6.61-4.63,12.71-12.79,12.6
		c-6.95-0.09-12.74-5.58-12.83-12.28C135.38,12.82,141.08,7.16,148.24,7.15z"/>
	<path class="st1" d="M332.84,32.1c-8.22,0.14-12.87-6.09-12.76-12.62c0.13-7.85,6.2-12.95,12.4-12.47
		c7.31,0.57,13.11,5.44,13.22,12.36C345.81,26.32,340,32.07,332.84,32.1z"/>
	<path class="st1" d="M222.15,178.73c0.01,7.29-5.43,13.05-12.36,13.09c-6.91,0.04-12.54-5.84-12.55-13.05
		c-0.01-7.6,5.28-12.38,12.28-12.62C216.59,165.92,223.3,171.56,222.15,178.73z"/>
	<path class="st1" d="M283.92,178.73c0.03,7.23-5.59,13.12-12.5,13.09c-6.75-0.02-11.94-5.76-12.51-12.54
		c-0.7-8.3,5.97-13.3,12.71-13.12C278.52,166.34,283.93,171.04,283.92,178.73z"/>
	<path class="st1" d="M468.24,178.97c-0.01,6.95-5.65,13.09-12.09,12.81c-7.85-0.34-12.78-6.02-12.84-12.78
		c-0.07-8.2,6.02-12.84,13.05-12.93C462.32,166.01,469.55,171.61,468.24,178.97z"/>
	<path class="st1" d="M394.28,271.69c-6.86-0.16-13.02-6.68-12.71-13.44c0.3-6.42,6.61-12.67,12.65-12.5
		c6.44,0.18,13.22,6.82,13.23,12.96C407.46,264.82,400.35,271.83,394.28,271.69z"/>
	<path class="st1" d="M148.16,111.96c-6.71,0.11-12.49-5.66-12.73-12.35c-0.23-6.55,5.51-12.83,12.57-13.23
		c6.86-0.39,13.26,6.2,13.33,13.03C161.41,105.6,154.85,111.86,148.16,111.96z"/>
	<path class="st1" d="M333.12,111.96c-6.92-0.06-13.27-6.22-13.31-12.94c-0.04-6.31,6.47-12.8,13.24-12.59
		c6.97,0.22,12.68,6.43,12.65,12.53C345.67,106.15,340.02,112.02,333.12,111.96z"/>
	<path class="st1" d="M12.93,99c0-7.38,5.29-13.13,12.44-12.58c7.23,0.55,12.45,5.36,12.47,12.41c0.02,7.2-5.51,13.09-12.36,13.13
		C17.89,112.01,12.93,106.89,12.93,99z"/>
	<path class="st1" d="M259.02,99.57c-0.01-7.88,5.26-13.81,12.56-13.07c6.89,0.7,12.3,4.09,12.34,12.51
		c0.04,7.2-5.57,12.97-12.49,12.95C264.41,111.94,259.03,106.57,259.02,99.57z"/>
	<path class="st1" d="M468.24,98.81c0.01,7.79-5.24,13.24-12.65,13.15c-6.67-0.09-12.12-5.87-12.28-12.81
		c-0.16-7.2,5.44-12.41,12.69-12.68C463.31,86.2,468.23,91.53,468.24,98.81z"/>
	<path class="st1" d="M222.15,99.57c-0.01,6.99-5.4,12.37-12.41,12.39c-6.92,0.02-12.52-5.75-12.49-12.95
		c0.04-8.44,5.45-12.11,12.33-12.44C217.69,86.18,222.73,92.77,222.15,99.57z"/>
	<path class="st1" d="M12.93,18.94c0.01-7.32,4.75-11.8,12.48-11.8c6.95,0,12.35,5.36,12.42,12.32c0.08,7.32-5.5,12.69-13.13,12.64
		C17.35,32.05,12.92,27.11,12.93,18.94z"/>
	<path class="st1" d="M209.92,7.15c7.81,0.03,12.27,4.66,12.24,12.69c-0.03,7.28-5.08,12.34-12.24,12.27
		c-7.52-0.08-12.7-5.44-12.66-13.12C197.28,12.04,202.55,7.12,209.92,7.15z"/>
	<path class="st1" d="M456.49,7.15c7.53,0.11,11.88,4.99,11.76,13.18c-0.1,6.92-5.19,11.84-12.18,11.78
		c-7.33-0.06-12.65-5.44-12.76-12.56C443.2,12.86,449.39,5.94,456.49,7.15z"/>
	<path class="st1" d="M259.02,19.4c0.03-7.81,4.66-12.28,12.67-12.25c7.26,0.03,12.31,5.1,12.23,12.28
		c-0.08,7.53-5.44,12.72-13.1,12.68C263.89,32.06,258.99,26.78,259.02,19.4z"/>
	<path class="st1" d="M333.04,270.92c-7.07,0.06-12.75-5.55-13.06-12.89c-0.23-5.48,6.97-12.21,13.16-12.3
		c6.28-0.09,12.58,6.44,12.56,13.01C345.67,265.57,340.16,270.86,333.04,270.92z"/>
	<path class="st1" d="M148.3,191.18c-6.91,0.01-12.38-5.43-12.36-12.27c0.02-7.1,5.88-13.15,12.61-13.02
		c5.98,0.12,13.08,6.93,12.72,12.88C160.88,185.2,155.49,191.43,148.3,191.18z"/>
	<path class="st0" d="M25.08,590.09c-6.75-0.08-12.24-5.72-12.17-12.51c0.06-6.78,5.75-12.4,12.42-12.28
		c6.65,0.12,12.38,5.96,12.29,12.54C37.52,584.54,31.76,590.17,25.08,590.09z"/>
	<path class="st0" d="M468.26,577.48c0.12,6.79-5.33,12.47-12.07,12.61c-6.71,0.14-12.45-5.39-12.63-12.14
		c-0.17-6.57,5.5-12.46,12.17-12.64C462.39,565.12,468.15,570.71,468.26,577.48z"/>
	<path class="st0" d="M222.14,497.97c-0.02,6.81-5.54,12.32-12.35,12.32c-6.76,0-12.37-5.59-12.39-12.35
		c-0.01-6.6,5.82-12.43,12.42-12.41C216.53,485.56,222.16,491.23,222.14,497.97z"/>
	<path class="st0" d="M455.99,645.09c6.75,0.02,12.29,5.61,12.28,12.4c-0.01,6.77-5.61,12.39-12.34,12.39
		c-6.59,0-12.4-5.86-12.37-12.45C443.58,650.73,449.28,645.07,455.99,645.09z"/>
	<path class="st0" d="M259.03,657.65c-0.1-6.76,5.41-12.45,12.15-12.55c6.72-0.1,12.45,5.45,12.58,12.18
		c0.13,6.59-5.59,12.49-12.21,12.6C264.86,669.99,259.13,664.39,259.03,657.65z"/>
	<path class="st0" d="M222.14,657.64c-0.09,6.73-5.84,12.34-12.52,12.24c-6.62-0.11-12.33-6.01-12.21-12.6
		c0.13-6.75,5.84-12.28,12.57-12.18C216.72,645.19,222.23,650.89,222.14,657.64z"/>
	<path class="st0" d="M12.91,657.33c0.07-6.81,5.64-12.3,12.42-12.24c6.7,0.06,12.36,5.82,12.29,12.48
		c-0.07,6.59-5.99,12.4-12.54,12.3C18.32,669.77,12.84,664.12,12.91,657.33z"/>
	<path class="st0" d="M468.27,497.8c0.07,6.85-5.33,12.39-12.15,12.48c-6.75,0.09-12.43-5.41-12.56-12.17
		c-0.12-6.55,5.66-12.5,12.25-12.58C462.52,485.45,468.2,491.04,468.27,497.8z"/>
	<path class="st0" d="M271.22,590.09c-6.74-0.09-12.27-5.76-12.19-12.52c0.07-6.75,5.77-12.34,12.48-12.27
		c6.66,0.08,12.36,5.92,12.26,12.55C283.65,584.56,277.91,590.17,271.22,590.09z"/>
	<path class="st0" d="M271.26,510.29c-6.82-0.06-12.28-5.6-12.23-12.42c0.04-6.74,5.72-12.38,12.42-12.33
		c6.59,0.05,12.4,5.96,12.31,12.52C283.67,504.81,278.01,510.35,271.26,510.29z"/>
	<path class="st0" d="M222.14,577.7c0,6.75-5.62,12.39-12.34,12.39c-6.7,0-12.39-5.67-12.4-12.38c-0.01-6.66,5.74-12.41,12.39-12.41
		C216.51,565.31,222.14,570.96,222.14,577.7z"/>
	<path class="st0" d="M259.03,737.05c0.09-6.81,5.66-12.23,12.49-12.15c6.76,0.08,12.34,5.77,12.25,12.48
		c-0.09,6.6-5.97,12.32-12.58,12.26C264.53,749.58,258.94,743.79,259.03,737.05z"/>
	<path class="st0" d="M222.14,737.19c0.02,6.73-5.69,12.5-12.31,12.45c-6.65-0.05-12.44-5.83-12.42-12.41
		c0.01-6.75,5.62-12.33,12.38-12.34C216.6,724.89,222.12,730.39,222.14,737.19z"/>
	<path class="st0" d="M222.13,418.78c-0.32,6.8-6.02,11.97-12.89,11.69c-6.75-0.27-12.17-6.16-11.82-12.84
		c0.36-6.66,6.45-12.22,12.96-11.8C217.25,406.27,222.45,412.01,222.13,418.78z"/>
	<path class="st0" d="M271.54,430.48c-6.86,0.1-12.4-5.25-12.51-12.08c-0.11-6.78,5.32-12.42,12.12-12.59
		c6.54-0.16,12.51,5.62,12.61,12.21C283.86,424.74,278.33,430.38,271.54,430.48z"/>
	<path class="st0" d="M25.31,510.29c-6.84,0.04-12.34-5.38-12.4-12.22c-0.06-6.79,5.42-12.43,12.18-12.53
		c6.56-0.1,12.38,5.62,12.52,12.31C37.75,504.48,32.05,510.25,25.31,510.29z"/>
	<path class="st0" d="M222.13,817.53c-0.29,6.69-6.29,12.19-12.88,11.8c-6.69-0.39-12.23-6.45-11.83-12.94
		c0.43-6.83,6.06-11.92,12.96-11.69C217.12,804.93,222.42,810.71,222.13,817.53z"/>
	<path class="st0" d="M468.26,737.16c0.04,6.78-5.57,12.5-12.23,12.48c-6.65-0.01-12.37-5.69-12.47-12.38
		c-0.1-6.65,5.59-12.35,12.35-12.37C462.74,724.87,468.23,730.31,468.26,737.16z"/>
	<path class="st0" d="M12.9,737.38c-0.07-6.86,5.31-12.39,12.13-12.48c6.77-0.09,12.51,5.45,12.57,12.14
		c0.06,6.64-5.55,12.42-12.24,12.6C18.75,749.82,12.98,744.14,12.9,737.38z"/>
	<path class="st0" d="M456.1,430.48c-6.84,0.04-12.48-5.43-12.53-12.14c-0.05-6.64,5.68-12.49,12.27-12.55
		c6.75-0.06,12.37,5.5,12.42,12.28C468.31,424.94,462.92,430.45,456.1,430.48z"/>
	<path class="st0" d="M259.03,817.18c-0.1-6.83,5.3-12.41,12.1-12.48c6.84-0.08,12.43,5.25,12.62,12.04
		c0.19,6.58-5.41,12.36-12.19,12.57C264.91,829.52,259.13,823.93,259.03,817.18z"/>
	<path class="st0" d="M135.97,657.46c0-6.82,5.49-12.34,12.29-12.36c6.74-0.02,12.22,5.52,12.22,12.36
		c0,6.81-5.52,12.43-12.21,12.42C141.56,669.86,135.97,664.21,135.97,657.46z"/>
	<path class="st0" d="M135.97,577.62c0.05-6.75,5.7-12.36,12.4-12.31c6.7,0.05,12.16,5.68,12.12,12.51
		c-0.04,6.82-5.59,12.35-12.32,12.27C141.37,590.01,135.92,584.43,135.97,577.62z"/>
	<path class="st0" d="M12.91,816.86c0.03-6.85,5.49-12.22,12.37-12.17c6.81,0.05,12.42,5.67,12.33,12.34
		c-0.09,6.66-5.84,12.31-12.52,12.3C18.34,829.31,12.88,823.72,12.91,816.86z"/>
	<path class="st0" d="M160.48,418.35c-0.05,6.97-5.35,12.19-12.33,12.13c-6.91-0.05-12.21-5.44-12.18-12.38
		c0.03-6.69,5.85-12.44,12.42-12.28C155.25,405.98,160.53,411.45,160.48,418.35z"/>
	<path class="st0" d="M25.11,430.48c-6.83-0.01-12.26-5.5-12.21-12.34c0.05-6.82,5.59-12.35,12.35-12.34
		c6.55,0.01,12.36,5.89,12.35,12.49C37.59,425,31.95,430.5,25.11,430.48z"/>
	<path class="st0" d="M320.67,657.61c-0.06-6.86,5.33-12.45,12.07-12.52c6.9-0.07,12.27,5.25,12.33,12.21
		c0.06,6.98-5.19,12.46-12.02,12.57C326.38,669.98,320.72,664.37,320.67,657.61z"/>
	<path class="st0" d="M27.91,988.57c-1.69,0.01-3.37,0.03-5.06,0.04c-7.63-2.73-11.25-8.3-9.72-14.95
		c1.39-6.06,6.85-9.89,13.35-9.36c5.58,0.45,9.95,4.63,10.94,10.46C38.42,980.68,34.94,985.73,27.91,988.57z"/>
	<path class="st0" d="M25.15,270.92c-7-0.02-12.26-5.27-12.25-12.22c0.01-6.94,5.31-12.18,12.3-12.18c6.8,0,12.42,5.55,12.39,12.23
		C37.57,265.47,31.97,270.94,25.15,270.92z"/>
	<path class="st0" d="M406.63,418.43c-0.09,6.98-5.4,12.14-12.39,12.05c-6.94-0.09-12.06-5.42-11.97-12.46
		c0.09-6.82,5.77-12.41,12.39-12.19C401.51,406.06,406.72,411.53,406.63,418.43z"/>
	<path class="st0" d="M345.07,418.09c0.06,7.05-5.09,12.33-12.05,12.39c-6.98,0.06-12.28-5.16-12.34-12.12
		c-0.05-6.89,5.21-12.36,12.07-12.54C339.36,405.65,345.01,411.28,345.07,418.09z"/>
	<path class="st0" d="M98.9,418.48c-0.11,6.97-5.44,12.12-12.43,12c-6.92-0.11-12.03-5.47-11.93-12.52
		c0.09-6.81,5.67-12.25,12.45-12.16C93.63,405.9,99,411.61,98.9,418.48z"/>
	<path class="st0" d="M147.65,908.87c-6.81-0.26-12.08-6.05-11.69-12.81c0.4-6.88,5.94-11.84,12.93-11.57
		c6.9,0.26,11.86,5.75,11.58,12.82C160.2,904.24,154.76,909.15,147.65,908.87z"/>
	<path class="st0" d="M406.63,816.9c0.03,6.87-5.36,12.39-12.14,12.42c-6.77,0.03-12.21-5.46-12.23-12.33
		c-0.02-7.05,5.13-12.27,12.13-12.29C401.37,804.67,406.6,809.89,406.63,816.9z"/>
	<path class="st0" d="M25.36,326.27c6.78,0.07,12.36,5.73,12.24,12.4c-0.13,6.72-5.76,12.1-12.6,12.02
		c-6.94-0.08-12.18-5.46-12.09-12.39C13,331.37,18.36,326.2,25.36,326.27z"/>
	<path class="st0" d="M25,166.75c6.82-0.08,12.47,5.31,12.59,12.03c0.12,6.67-5.45,12.32-12.23,12.4
		c-6.99,0.09-12.37-5.11-12.46-12.03C12.82,172.28,18.13,166.83,25,166.75z"/>
	<path class="st0" d="M25.04,908.89c-6.98-0.07-12.2-5.38-12.14-12.34c0.06-6.91,5.43-12.12,12.42-12.07
		c6.78,0.05,12.39,5.69,12.28,12.35C37.49,903.54,31.86,908.96,25.04,908.89z"/>
	<path class="st0" d="M345.06,577.71c0.01,6.95-5.33,12.37-12.19,12.38c-6.73,0.01-12.21-5.55-12.21-12.38
		c0-6.79,5.54-12.42,12.22-12.4C339.72,565.32,345.06,570.75,345.06,577.71z"/>
	<path class="st0" d="M382.27,577.9c-0.08-6.92,5.19-12.47,11.98-12.6c6.68-0.13,12.31,5.42,12.39,12.21
		c0.08,6.85-5.27,12.46-12,12.57C387.78,590.19,382.35,584.84,382.27,577.9z"/>
	<path class="st0" d="M456.15,326.28c6.97,0.08,12.19,5.41,12.11,12.36c-0.08,6.86-5.5,12.11-12.45,12.05
		c-6.77-0.06-12.38-5.72-12.25-12.37C443.7,331.59,449.32,326.21,456.15,326.28z"/>
	<path class="st0" d="M98.9,498.01c-0.03,7.01-5.28,12.29-12.22,12.27c-6.88-0.02-12.17-5.38-12.16-12.34
		c0.01-6.81,5.55-12.43,12.23-12.39C93.45,485.57,98.93,491.19,98.9,498.01z"/>
	<path class="st0" d="M456.02,908.89c-6.81,0.03-12.42-5.45-12.46-12.17c-0.04-6.68,5.57-12.24,12.37-12.25
		c6.96-0.01,12.31,5.27,12.32,12.17C468.28,903.6,463.02,908.86,456.02,908.89z"/>
	<path class="st0" d="M98.9,577.59c0.05,6.98-5.19,12.41-12.06,12.49c-6.72,0.08-12.27-5.44-12.31-12.26
		c-0.05-6.83,5.37-12.45,12.08-12.52C93.37,565.23,98.85,570.71,98.9,577.59z"/>
	<path class="st0" d="M458.33,988.61c-1.69-0.01-3.37-0.03-5.06-0.04c-5.66-1.68-9.1-5.49-9.58-11.33c-0.41-5,1.88-9.09,6.31-11.51
		c4.4-2.4,8.95-2.17,13.11,0.72c4.02,2.79,5.72,6.85,5.04,11.65C467.34,983.76,463.81,987.17,458.33,988.61z"/>
	<path class="st0" d="M271.8,326.29c6.54,0.18,11.99,5.72,11.95,12.16c-0.04,6.95-5.8,12.44-12.86,12.25
		c-6.82-0.18-12.08-5.8-11.86-12.67C259.25,331.17,264.78,326.09,271.8,326.29z"/>
	<path class="st0" d="M222.13,338.5c-0.04,6.86-5.44,12.2-12.34,12.2c-6.81,0-12.33-5.46-12.38-12.23
		c-0.05-6.64,5.63-12.2,12.42-12.19C216.81,326.29,222.17,331.62,222.13,338.5z"/>
	<path class="st0" d="M148.17,326.28c7.04-0.04,12.27,5.09,12.31,12.1c0.04,7.01-5.14,12.27-12.11,12.31
		c-6.91,0.04-12.38-5.29-12.44-12.11C135.88,331.78,141.31,326.32,148.17,326.28z"/>
	<path class="st0" d="M98.9,737.28c-0.03,6.8-5.59,12.4-12.27,12.35c-6.7-0.06-12.14-5.69-12.1-12.52
		c0.04-6.97,5.35-12.26,12.27-12.22C93.73,724.94,98.93,730.26,98.9,737.28z"/>
	<path class="st0" d="M160.48,736.98c0.08,6.87-5.27,12.51-11.99,12.65c-6.6,0.14-12.43-5.55-12.52-12.22
		c-0.1-6.87,5.25-12.4,12.09-12.51C154.92,724.79,160.4,730.12,160.48,736.98z"/>
	<path class="st0" d="M98.9,816.83c0.04,6.9-5.28,12.4-12.07,12.49c-6.76,0.08-12.26-5.4-12.3-12.26
		c-0.04-7.04,5.11-12.32,12.07-12.36C93.6,804.65,98.86,809.84,98.9,816.83z"/>
	<path class="st0" d="M345.07,737.09c0.04,6.83-5.38,12.46-12.09,12.54c-6.65,0.08-12.27-5.55-12.3-12.33
		c-0.03-6.93,5.27-12.36,12.11-12.4C339.72,724.85,345.02,730.12,345.07,737.09z"/>
	<path class="st0" d="M394.54,724.9c6.9,0.05,12.13,5.41,12.1,12.4c-0.03,6.8-5.62,12.42-12.29,12.34
		c-6.72-0.08-12.13-5.69-12.08-12.53C382.32,730.09,387.59,724.85,394.54,724.9z"/>
	<path class="st0" d="M468.26,817.08c-0.04,6.79-5.7,12.38-12.39,12.25c-6.7-0.13-12.36-5.88-12.3-12.51
		c0.05-6.71,5.69-12.16,12.53-12.13C462.91,804.73,468.3,810.22,468.26,817.08z"/>
	<path class="st0" d="M160.48,816.98c-0.02,6.89-5.48,12.4-12.24,12.34c-6.76-0.05-12.32-5.69-12.25-12.41
		c0.07-6.95,5.39-12.22,12.32-12.21C155.26,804.71,160.5,810,160.48,816.98z"/>
	<path class="st0" d="M332.69,804.7c7.01-0.08,12.29,5.06,12.37,12.05c0.08,6.89-5.2,12.43-12,12.57
		c-6.74,0.14-12.31-5.34-12.39-12.19C320.59,810.12,325.76,804.78,332.69,804.7z"/>
	<path class="st0" d="M98.9,178.84c0.06,7.09-5.01,12.27-12.05,12.34c-7.05,0.06-12.27-5.05-12.32-12.07
		c-0.05-7.03,5.09-12.3,12.06-12.35C93.61,166.7,98.84,171.84,98.9,178.84z"/>
	<path class="st0" d="M98.91,657.49c-0.01,6.81-5.53,12.4-12.22,12.38c-6.69-0.02-12.18-5.64-12.16-12.45
		c0.02-6.88,5.45-12.36,12.23-12.33C93.62,645.12,98.92,650.53,98.91,657.49z"/>
	<path class="st0" d="M345.06,498.09c-0.05,6.97-5.4,12.28-12.3,12.19c-6.86-0.09-12.14-5.51-12.1-12.43
		c0.04-6.78,5.67-12.4,12.32-12.31C339.72,485.64,345.11,491.25,345.06,498.09z"/>
	<path class="st0" d="M86.48,884.48c7.08-0.1,12.32,4.93,12.43,11.96c0.11,7.1-4.91,12.34-11.93,12.45
		c-7.07,0.11-12.32-4.94-12.44-11.95C74.42,889.91,79.52,884.58,86.48,884.48z"/>
	<path class="st0" d="M209.93,884.47c6.87,0.05,12.28,5.53,12.2,12.34c-0.08,6.92-5.45,12.13-12.44,12.08
		c-6.78-0.05-12.43-5.72-12.28-12.32C197.56,889.79,203.12,884.42,209.93,884.47z"/>
	<path class="st0" d="M271.37,908.89c-6.99,0.01-12.36-5.28-12.34-12.16c0.01-6.87,5.39-12.24,12.28-12.26
		c6.8-0.02,12.35,5.41,12.44,12.18C283.84,903.27,278.16,908.89,271.37,908.89z"/>
	<path class="st0" d="M345.06,896.62c0.03,7.08-5.06,12.24-12.12,12.27c-7.03,0.03-12.24-5.12-12.27-12.14
		c-0.03-7.01,5.14-12.23,12.14-12.28C339.86,884.44,345.03,889.56,345.06,896.62z"/>
	<path class="st0" d="M394.38,645.09c6.74-0.05,12.23,5.47,12.26,12.31c0.03,6.8-5.45,12.44-12.14,12.47
		c-6.76,0.04-12.21-5.46-12.23-12.35C382.24,650.55,387.51,645.14,394.38,645.09z"/>
	<path class="st0" d="M394.64,510.28c-6.94,0.1-12.28-5.12-12.37-12.11c-0.09-6.85,5.24-12.47,11.98-12.63
		c6.64-0.15,12.32,5.45,12.39,12.23C406.71,504.72,401.47,510.18,394.64,510.28z"/>
	<path class="st0" d="M222.13,258.96c-0.13,6.89-5.55,12.07-12.54,11.97c-6.77-0.1-12.33-5.76-12.18-12.42
		c0.15-6.72,5.8-12.07,12.63-11.98C216.95,246.62,222.26,252.08,222.13,258.96z"/>
	<path class="st0" d="M86.58,246.53c7.07-0.07,12.26,4.99,12.33,12.04c0.07,7.1-4.98,12.28-12.02,12.35
		c-7.06,0.07-12.28-5.02-12.35-12.04C74.46,251.86,79.59,246.6,86.58,246.53z"/>
	<path class="st0" d="M148.03,510.28c-6.79-0.09-12.17-5.69-12.06-12.54c0.11-6.7,5.92-12.35,12.54-12.2
		c6.73,0.15,12.05,5.79,11.97,12.66C160.4,505.05,154.91,510.38,148.03,510.28z"/>
	<path class="st0" d="M148.44,270.92c-6.91,0.08-12.39-5.19-12.51-12.02c-0.12-6.78,5.31-12.31,12.16-12.38
		c7.05-0.06,12.32,5.05,12.4,12.02C160.56,265.58,155.43,270.84,148.44,270.92z"/>
	<path class="st0" d="M394.44,326.29c7.05,0,12.18,5.14,12.19,12.19c0,7.01-5.19,12.22-12.19,12.21c-7.02,0-12.17-5.16-12.17-12.21
		C382.26,331.41,387.37,326.28,394.44,326.29z"/>
	<path class="st0" d="M332.71,350.69c-6.96-0.07-12.11-5.36-12.04-12.37c0.07-6.99,5.32-12.1,12.37-12.04
		c7.02,0.06,12.1,5.3,12.02,12.37C344.98,345.68,339.77,350.76,332.71,350.69z"/>
	<path class="st0" d="M406.63,896.56c0.05,7.05-5.07,12.28-12.06,12.33c-7.09,0.05-12.24-5.01-12.3-12.07
		c-0.05-7.08,5.02-12.28,12.04-12.34C401.32,884.42,406.58,889.58,406.63,896.56z"/>
	<path class="st0" d="M212.23,988.6c-1.69-0.01-3.37-0.02-5.06-0.03c-6.95-2.72-10.58-7.88-9.66-13.73
		c0.92-5.86,5.66-10.26,11.4-10.58c6.49-0.36,11.7,3.57,13,9.8C223.27,980.48,219.69,985.86,212.23,988.6z"/>
	<path class="st0" d="M274,988.57c-1.69,0.01-3.37,0.02-5.06,0.03c-7.44-2.73-11.02-8.08-9.74-14.54c1.22-6.13,6.56-10.15,13.02-9.8
		c5.74,0.31,10.5,4.71,11.42,10.56C284.56,980.67,280.94,985.84,274,988.57z"/>
	<path class="st0" d="M86.64,326.29c7.08-0.04,12.22,5.04,12.27,12.11c0.04,7.04-5.09,12.26-12.09,12.3
		c-7.01,0.04-12.24-5.13-12.27-12.13C74.5,331.5,79.6,326.32,86.64,326.29z"/>
	<path class="st0" d="M271.45,246.52c6.78,0.04,12.38,5.64,12.3,12.32c-0.08,6.71-5.69,12.13-12.52,12.09
		c-6.93-0.05-12.27-5.42-12.21-12.31C259.09,251.75,264.5,246.48,271.45,246.52z"/>
</g>
</svg>
